HIERARCHY
ROOT hip
{
  OFFSET 0 0 0
  CHANNELS 6 Xposition Yposition Zposition Zrotation Yrotation Xrotation
  JOINT abdomen
  {
    OFFSET 0 20.6881 -0.73152
    CHANNELS 3 Zrotation Xrotation Yrotation
    JOINT chest
    {
      OFFSET 0 11.7043 -0.48768
      CHANNELS 3 Zrotation Xrotation Yrotation
      JOINT neck
      {
        OFFSET 0 22.1894 -2.19456
        CHANNELS 3 Zrotation Xrotation Yrotation
        JOINT head
        {
          OFFSET -0.24384 7.07133 1.2192
          CHANNELS 3 Zrotation Xrotation Yrotation
          JOINT leftEye
          {
            OFFSET 4.14528 8.04674 8.04672
            CHANNELS 3 Zrotation Xrotation Yrotation
            End Site
            {
              OFFSET 1 0 0
            }
          }
          JOINT rightEye
          {
            OFFSET -3.6576 8.04674 8.04672
            CHANNELS 3 Zrotation Xrotation Yrotation
            End Site
            {
              OFFSET 1 0 0
            }
          }
        }
      }
      JOINT rCollar
      {
        OFFSET -2.68224 19.2634 -4.8768
        CHANNELS 3 Zrotation Xrotation Yrotation
        JOINT rShldr
        {
          OFFSET -8.77824 -1.95073 1.46304
          CHANNELS 3 Zrotation Xrotation Yrotation
          JOINT rForeArm
          {
            OFFSET -28.1742 -1.7115 0.48768
            CHANNELS 3 Zrotation Xrotation Yrotation
            JOINT rHand
            {
              OFFSET -22.5879 0.773209 7.07136
              CHANNELS 3 Zrotation Xrotation Yrotation
              JOINT rThumb1
              {
                OFFSET -1.2192 -0.487915 3.41376
                CHANNELS 3 Zrotation Xrotation Yrotation
                JOINT rThumb2
                {
                  OFFSET -3.37035 -0.52449 3.41376
                  CHANNELS 3 Zrotation Xrotation Yrotation
                  End Site
                  {
                    OFFSET -1.78271 -1.18214 1.43049
                  }
                }
              }
              JOINT rIndex1
              {
                OFFSET -7.75947 0.938293 5.60832
                CHANNELS 3 Zrotation Xrotation Yrotation
                JOINT rIndex2
                {
                  OFFSET -2.54057 -0.884171 1.56538
                  CHANNELS 3 Zrotation Xrotation Yrotation
                  End Site
                  {
                    OFFSET -1.62519 -0.234802 1.16502
                  }
                }
              }
              JOINT rMid1
              {
                OFFSET -8.24714 1.18213 3.41376
                CHANNELS 3 Zrotation Xrotation Yrotation
                JOINT rMid2
                {
                  OFFSET -3.10165 -0.590103 1.0647
                  CHANNELS 3 Zrotation Xrotation Yrotation
                  End Site
                  {
                    OFFSET -2.48547 -0.328903 0.83742
                  }
                }
              }
              JOINT rRing1
              {
                OFFSET -8.82822 0.546677 1.51678
                CHANNELS 3 Zrotation Xrotation Yrotation
                JOINT rRing2
                {
                  OFFSET -2.60934 -0.819778 -0.0198488
                  CHANNELS 3 Zrotation Xrotation Yrotation
                  End Site
                  {
                    OFFSET -2.33842 -0.294052 0.168128
                  }
                }
              }
              JOINT rPinky1
              {
                OFFSET -8.27202 -0.0477905 -0.4584
                CHANNELS 3 Zrotation Xrotation Yrotation
                JOINT rPinky2
                {
                  OFFSET -1.82734 -0.647385 -0.700984
                  CHANNELS 3 Zrotation Xrotation Yrotation
                  End Site
                  {
                    OFFSET -1.69225 -0.51767 -0.607171
                  }
                }
              }
            }
          }
        }
      }
      JOINT lCollar
      {
        OFFSET 2.68224 19.2634 -4.8768
        CHANNELS 3 Zrotation Xrotation Yrotation
        JOINT lShldr
        {
          OFFSET 8.77824 -1.95073 1.46304
          CHANNELS 3 Zrotation Xrotation Yrotation
          JOINT lForeArm
          {
            OFFSET 28.1742 -1.7115 0.48768
            CHANNELS 3 Zrotation Xrotation Yrotation
            JOINT lHand
            {
              OFFSET 22.5879 0.773209 7.07136
              CHANNELS 3 Zrotation Xrotation Yrotation
              JOINT lThumb1
              {
                OFFSET 1.2192 -0.487915 3.41376
                CHANNELS 3 Zrotation Xrotation Yrotation
                JOINT lThumb2
                {
                  OFFSET 3.37035 -0.52449 3.41376
                  CHANNELS 3 Zrotation Xrotation Yrotation
                  End Site
                  {
                    OFFSET 1.78271 -1.18214 1.43049
                  }
                }
              }
              JOINT lIndex1
              {
                OFFSET 7.75947 0.938293 5.60832
                CHANNELS 3 Zrotation Xrotation Yrotation
                JOINT lIndex2
                {
                  OFFSET 2.54057 -0.884171 1.56538
                  CHANNELS 3 Zrotation Xrotation Yrotation
                  End Site
                  {
                    OFFSET 1.62519 -0.234802 1.16502
                  }
                }
              }
              JOINT lMid1
              {
                OFFSET 8.24714 1.18213 3.41376
                CHANNELS 3 Zrotation Xrotation Yrotation
                JOINT lMid2
                {
                  OFFSET 3.10165 -0.590103 1.0647
                  CHANNELS 3 Zrotation Xrotation Yrotation
                  End Site
                  {
                    OFFSET 2.48547 -0.328903 0.83742
                  }
                }
              }
              JOINT lRing1
              {
                OFFSET 8.82822 0.546677 1.51678
                CHANNELS 3 Zrotation Xrotation Yrotation
                JOINT lRing2
                {
                  OFFSET 2.60934 -0.819778 -0.0198488
                  CHANNELS 3 Zrotation Xrotation Yrotation
                  End Site
                  {
                    OFFSET 2.33842 -0.294052 0.168128
                  }
                }
              }
              JOINT lPinky1
              {
                OFFSET 8.27202 -0.0477905 -0.4584
                CHANNELS 3 Zrotation Xrotation Yrotation
                JOINT lPinky2
                {
                  OFFSET 1.82734 -0.647385 -0.700984
                  CHANNELS 3 Zrotation Xrotation Yrotation
                  End Site
                  {
                    OFFSET 1.69225 -0.51767 -0.607171
                  }
                }
              }
            }
          }
        }
      }
    }
  }
  JOINT rButtock
  {
    OFFSET -8.77824 4.35084 1.2192
    CHANNELS 3 Zrotation Xrotation Yrotation
    JOINT rThigh
    {
      OFFSET 0 -1.70687 -2.19456
      CHANNELS 3 Zrotation Xrotation Yrotation
      JOINT rShin
      {
        OFFSET 0 -36.8199 0.73152
        CHANNELS 3 Zrotation Xrotation Yrotation
        JOINT rFoot
        {
          OFFSET 0.73152 -45.1104 -5.12064
          CHANNELS 3 Zrotation Xrotation Yrotation
          End Site
          {
            OFFSET -1.1221 -3.69964 12.103
          }
        }
      }
    }
  }
  JOINT lButtock
  {
    OFFSET 8.77824 4.35084 1.2192
    CHANNELS 3 Zrotation Xrotation Yrotation
    JOINT lThigh
    {
      OFFSET 0 -1.70687 -2.19456
      CHANNELS 3 Zrotation Xrotation Yrotation
      JOINT lShin
      {
        OFFSET 0 -36.8199 0.73152
        CHANNELS 3 Zrotation Xrotation Yrotation
        JOINT lFoot
        {
          OFFSET -0.73152 -45.1104 -5.12064
          CHANNELS 3 Zrotation Xrotation Yrotation
          End Site
          {
            OFFSET 1.1221 -3.69964 12.103
          }
        }
      }
    }
  }
}
MOTION
Frames:	4
Frame Time:	0.03333
-6.805400000000001 36.6372 -26.668799999999997 -174.071887 28.561317 -167.122611 24.93636 51.431513 149.261031 -3.739515 57.897764 -152.543348 -136.636599 57.309142 64.78424 58.438792 -56.834893 29.392129 4.955221 2.601181 55.372026 -35.650765 1.814089 -5.637557 -136.622244 -16.390976 164.248046 137.875985 -10.143692 166.061879 175.562347 41.71427 47.014469 161.478052 -1.558766 138.501802 -129.821791 18.848906 116.607011 136.825497 -79.094087 99.182008 1.162941 7.269991 22.712828 -124.544862 52.703941 -145.301011 79.274102 66.291095 -24.64371 -159.713297 -22.148287 -170.897293 -35.478596 -52.65386 -111.718593 -152.907899 -17.709866 172.195667 11.302251 41.585113 10.382133 26.449545 -61.48478 -54.233836 132.396551 9.253987 -159.675068 46.164492 25.165344 -21.896759 -100.386394 -35.980235 89.869195 -126.895252 65.284209 -166.10728 -3.584855 39.652084 -45.199868 32.3444 8.499096 53.502141 21.704994 20.789351 -62.288448 -7.305586 71.786433 -68.327822 89.832553 -6.829383 -169.463367 7.950866 -22.908753 150.508833 -34.737049 -1.630095 -12.447226 -81.004516 -46.625959 -96.748878 0.559881 60.005639 -73.325068 122.490369 -7.04192 147.653288 -55.987478 9.181022 -23.735719 104.52743 0.941714 97.116681 95.247459 23.718218 118.530774 -159.943467 48.638955 -19.136734 121.477497 59.668376 47.286407 167.388634 13.59864 -180.0 -36.583741 -66.891599 35.813489 123.406594 34.555204 80.707523
-6.3084 32.1208 -26.3593 -173.608813 25.250648 -167.790374 27.965694 64.254366 -25.062082 -13.948471 -69.315172 3.49741 160.037922 77.660014 -34.459559 -23.444223 84.639086 -163.351354 27.204573 22.136802 77.907826 -33.965647 1.285108 -4.206196 31.05277 -41.088881 -6.822516 -72.541251 -46.553754 -105.873144 68.152366 -49.148682 -85.095619 170.159696 26.596279 146.501872 25.19479 -0.735986 -27.570525 -7.329958 -1.840483 26.670265 -139.03043 -15.106761 101.888079 -168.091908 38.052024 10.712848 83.263126 50.360613 -30.715641 167.748827 41.171102 163.20505 61.530637 2.711306 -19.693509 14.709358 -35.587184 8.145276 -7.378669 79.336816 43.249776 134.359552 -70.735944 66.105474 137.237368 -5.156858 -164.916124 -146.45112 -12.796386 -173.531552 4.171843 -14.233241 -108.88878 -40.504739 21.022054 60.43794 -68.939803 13.018635 -19.250245 74.103688 14.941436 26.685824 86.333601 -19.831789 -87.086008 89.331143 -55.793245 -68.909895 -49.36422 40.655466 -4.94405 155.517077 -58.639037 67.814146 -36.260434 -22.527991 -14.289597 90.674911 1.123573 -92.546978 -42.985764 -46.410391 -9.334986 -2.208549 2.487909 0.529023 -55.165166 9.740386 -23.647224 105.980692 1.360212 -180.0 78.691475 -62.672359 -92.793763 -152.850224 -65.627265 -161.869638 -162.725391 72.052741 0.0 132.580632 0.754442 180.0 1.805286 -71.871204 72.320529 133.504752 -41.501233 109.888379
-6.0005999999999995 28.864600000000003 -26.2882 -173.060219 24.944112 -171.29799 13.70501 51.308427 -10.419416 -8.656537 -48.003971 10.800665 9.267162 66.05629 -128.087996 48.715549 -33.111441 89.48793 173.229956 -5.777667 80.938066 -26.935049 1.789642 -7.463091 -125.291786 5.068877 159.753306 -56.970659 28.829767 34.965416 15.960723 -65.616765 -129.990688 155.219525 -2.192524 139.052668 173.684536 -46.493421 99.057678 -167.768591 -13.136078 133.331648 135.515845 -59.534204 70.26469 -122.060289 -48.246046 -101.81807 -59.867871 -41.080658 -159.305777 -122.670288 -36.829562 125.593108 -116.389855 78.148237 -167.663857 -161.314634 -35.309653 172.224573 17.300322 -2.81709 3.214463 -147.524969 55.275088 -83.439434 140.24937 -52.99546 -167.167132 38.378745 -34.953496 36.139682 4.597369 0.399964 147.160995 -113.646601 -4.907817 -83.273507 96.120675 -10.108464 -49.607851 -165.838273 -65.369344 -29.796594 -34.360595 -5.376545 -52.43496 -170.564923 38.118313 118.482809 -2.222106 46.339318 -46.845714 -96.493704 80.745975 121.710853 103.484957 10.724897 -154.985125 -118.783575 28.646018 101.209224 -60.194631 -52.382332 -10.281005 139.563294 -19.084721 149.228468 -27.630104 7.083277 -0.0 74.611803 -20.078034 84.602467 76.278142 33.211797 -80.093944 133.789245 -22.183318 105.124234 -126.583535 65.916746 -20.251939 120.791167 -7.39 94.383011 74.903168 -3.544897 107.763324 -103.310319 56.135064 -72.970374
-5.8293 26.923000000000002 -26.5353 -173.787362 22.700389 -175.23949 5.639108 35.16477 149.132087 -8.815908 25.258419 -132.038823 39.997355 33.021162 54.286319 26.836643 76.364401 -148.35429 -179.368058 0.560017 83.093576 -16.132697 1.913038 -13.43785 25.377186 2.552938 -4.140984 -114.609711 -27.19779 -176.904337 141.98678 4.102747 -50.509354 34.161001 76.469248 -50.910295 -172.081308 -14.852892 98.642383 -43.720295 -24.837762 -4.471619 -2.501762 7.567075 12.587392 -80.18439 71.964531 141.606155 117.371811 73.121643 -52.164615 156.274 -7.364174 -150.028022 -42.455665 -50.843093 -112.864852 11.280679 29.480047 -12.067131 42.964711 41.862543 3.559956 51.19629 -12.564088 26.309593 157.848934 -71.765069 -148.417643 -5.550487 13.527719 29.920117 -171.652428 75.759363 58.548448 -3.198625 -7.717077 56.296988 17.63631 58.912904 -52.893076 73.012326 -42.111626 -177.500039 -31.242052 48.813233 -17.283025 2.014807 -44.903388 118.006115 -109.174261 77.925669 80.625232 -145.025555 50.34361 117.050074 146.114336 18.894544 145.203674 171.916945 -66.967805 146.400795 -40.130287 10.523446 30.087602 153.095778 53.844278 159.858526 66.779768 50.252689 43.286796 -68.505006 -19.005673 48.397742 83.991053 -1.653932 120.297483 136.698574 50.508938 22.616548 5.429946 7.106334 -7.638982 -44.881495 -54.595628 -129.473775 -61.803421 12.379841 68.156762 -128.943594 -21.155636 -80.576043
